<?xml version="1.0" encoding="UTF-8"?>
<svg width="78px" height="61px" viewBox="0 0 78 61" version="1.1" xmlns="http://www.w3.org/2000/svg" xmlns:xlink="http://www.w3.org/1999/xlink">
    <!-- Generator: Sketch 50.2 (55047) - http://www.bohemiancoding.com/sketch -->
    <title>Artboard Copy</title>
    <desc>Created with Sketch.</desc>
    <defs></defs>
    <g id="Page-1" stroke="none" stroke-width="1" fill="none" fill-rule="evenodd">
        <g id="Artboard" transform="translate(-129.000000, -8.000000)" fill="#000000" fill-rule="nonzero">
            <g id="noun_menu_1841880" transform="translate(131.000000, 8.000000)">
                <g id="Group">
                    <path d="M4.80769231,0.350662857 C2.1525,0.350662857 0,2.51809937 0,5.1919327 C0,7.86575635 2.1525,10.0332025 4.80769231,10.0332025 L70.1923077,10.0332025 C72.8475,10.0332025 75,7.86575635 75,5.1919327 C75,2.51809937 72.8475,0.350662857 70.1923077,0.350662857 L4.80769231,0.350662857 Z M4.80769231,25.5252273 C2.1525,25.5252273 0,27.6926638 0,30.3664778 C0,33.0403111 2.1525,35.2077476 4.80769231,35.2077476 L70.1923077,35.2077476 C72.8475,35.2077476 75,33.0403111 75,30.3664778 C75,27.6926638 72.8475,25.5252273 70.1923077,25.5252273 L4.80769231,25.5252273 Z M4.80769231,50.6999079 C2.1525,50.6999079 0,52.8673444 0,55.5411778 C0,58.2150111 2.1525,60.3824476 4.80769231,60.3824476 L70.1923077,60.3824476 C72.8475,60.3824476 75,58.2150111 75,55.5411778 C75,52.8673444 72.8475,50.6999079 70.1923077,50.6999079 L4.80769231,50.6999079 Z" id="Shape"></path>
                </g>
            </g>
        </g>
    </g>
</svg>